<?xml version="1.0" encoding="UTF-8" standalone="no"?>
<svg
   xmlns:dc="http://purl.org/dc/elements/1.1/"
   xmlns:cc="http://creativecommons.org/ns#"
   xmlns:rdf="http://www.w3.org/1999/02/22-rdf-syntax-ns#"
   xmlns:svg="http://www.w3.org/2000/svg"
   xmlns="http://www.w3.org/2000/svg"
   xmlns:sodipodi="http://sodipodi.sourceforge.net/DTD/sodipodi-0.dtd"
   xmlns:inkscape="http://www.inkscape.org/namespaces/inkscape"
   height="354pt"
   viewBox="0 -47 354.98667 354"
   width="354pt"
   version="1.1"
   id="svg24"
   sodipodi:docname="sound-waves-edit3.svg"
   inkscape:version="0.92.4 (5da689c313, 2019-01-14)"
   inkscape:export-filename="/home/em/tmp/csounqt-icons/sound-waves-edit3.png"
   inkscape:export-xdpi="12.81"
   inkscape:export-ydpi="12.81">
  <metadata
     id="metadata30">
    <rdf:RDF>
      <cc:Work
         rdf:about="">
        <dc:format>image/svg+xml</dc:format>
        <dc:type
           rdf:resource="http://purl.org/dc/dcmitype/StillImage" />
        <dc:title />
      </cc:Work>
    </rdf:RDF>
  </metadata>
  <defs
     id="defs28" />
  <sodipodi:namedview
     pagecolor="#ffffff"
     bordercolor="#666666"
     borderopacity="1"
     objecttolerance="10"
     gridtolerance="10"
     guidetolerance="10"
     inkscape:pageopacity="0"
     inkscape:pageshadow="2"
     inkscape:window-width="1920"
     inkscape:window-height="1058"
     id="namedview26"
     showgrid="false"
     inkscape:zoom="0.70710678"
     inkscape:cx="-12.284541"
     inkscape:cy="290.99005"
     inkscape:window-x="0"
     inkscape:window-y="22"
     inkscape:window-maximized="1"
     inkscape:current-layer="svg24" />
  <path
     style="stroke-width:1.9202857"
     d="m 15.385893,109.75807 c -0.282091,1.11546 -0.44677,2.28108 -0.44677,3.49047 v 186.78235 c 0,0.90358 0.08692,1.78469 0.246683,2.63837 h 24.986386 c 0.159757,-0.85368 0.246684,-1.73479 0.246684,-2.63837 V 113.24854 c 0,-1.20939 -0.164687,-2.37501 -0.446775,-3.49047 z"
     id="path4"
     inkscape:connector-curvature="0" />
  <path
     style="stroke-width:1.25282311"
     d="m 71.12425,127.74373 c -0.07334,0.2407 -0.123429,0.48462 -0.123429,0.73393 V 283.80249 H 97.084308 V 128.47766 c 0,-0.24931 -0.0501,-0.49323 -0.123391,-0.73393 z"
     id="path6"
     inkscape:connector-curvature="0" />
  <path
     style="stroke-width:1.23970389"
     d="m 229.97724,141.36152 v 128.36694 h 24.8739 V 141.36152 Z"
     id="path10"
     inkscape:connector-curvature="0" />
  <path
     style="stroke-width:1.56662595"
     d="m 325.50245,152.03738 c -0.16641,0.64963 -0.2561,1.32113 -0.2561,2.01142 v 94.7704 h 23.5645 v -94.7704 c 0,-0.69029 -0.0897,-1.36179 -0.25606,-2.01142 z"
     id="path14"
     inkscape:connector-curvature="0" />
  <path
     style="stroke-width:1.26339936"
     d="m 276.02255,101.83073 c -0.0235,0.1397 -0.0477,0.27956 -0.0477,0.4219 v 202.60839 h 26.0772 V 102.25263 c 0,-0.14234 -0.0242,-0.2822 -0.0477,-0.4219 z"
     id="path1256"
     inkscape:connector-curvature="0" />
  <path
     style="stroke-width:0.87141681"
     d="M 232.2241,116.31411"
     id="path16"
     inkscape:connector-curvature="0" />
  <path
     style="stroke-width:1.53965449"
     d="m 122.38198,186.14871 c -0.15088,0.59503 -0.23176,1.21062 -0.23176,1.84056 v 37.3313 c 0,0.89226 0.16766,1.75223 0.46352,2.56915 h 22.74356 c 0.29613,-0.81692 0.46353,-1.67689 0.46353,-2.56915 v -37.3313 c 0,-0.62994 -0.0808,-1.24553 -0.23177,-1.84056 z"
     id="path18"
     inkscape:connector-curvature="0" />
  <path
     style="stroke-width:1.25818574"
     d="m 174.15668,185.0095 c -0.003,0.0562 -0.0192,0.11154 -0.0192,0.16823 v 47.14159 c 0,0.0753 0.0187,0.14844 0.0245,0.22306 h 25.42626 c 0.005,-0.0746 0.0246,-0.14774 0.0246,-0.22306 v -47.14159 c 0,-0.0567 -0.0152,-0.11194 -0.0192,-0.16823 z"
     id="path22"
     inkscape:connector-curvature="0" />
  <g
     id="g915"
     transform="matrix(1.895828,0,0,1.895828,-140.59173,-65.729485)">
    <g
       transform="translate(0,27.075257)"
       id="g909">
      <path
         inkscape:connector-curvature="0"
         style="fill:currentColor;fill-opacity:1;stroke:none;stroke-width:9.65793514"
         d="M 219.2188,-16.322425 169.85395,33.042436 138.10717,64.78908 v 34.783657 h 34.78365 l 81.11163,-81.111515 z m -19.78752,33.708431 20.86274,20.862612 -30.65268,30.671429 v -6.526541 l -9.78994,0.208032 h -9.99745 V 52.60408 46.945108 l 13.92089,-13.902159 z m -39.36741,39.348528 v 15.65643 h 9.99746 9.58255 l 0.20803,6.300275 -10.43137,10.45012 h -13.92103 l -6.96046,-6.960455 V 68.259869 Z"
         class="ColorScheme-Text"
         id="path4-5" />
    </g>
  </g>
</svg>
